<svg xmlns="http://www.w3.org/2000/svg" width="1333.333" height="442.667" version="1" viewBox="0 0 1000.000000 332.000000"><path d="M0 114.3v114.2l25.8 25.8L51.5 280 94 305.5l42.4 25.5H211v-5c0-3.9.4-5 1.6-5 .8 0 7 2.3 13.8 5l12.3 5h140.1l12.1-14.1c6.7-7.7 12.1-13.7 12.1-13.2 0 .4.7 6.4 1.5 13.3s1.5 12.8 1.5 13.2c0 .5 20.4.8 45.4.8h45.3l.7-7.7c.3-4.2.6-10 .6-12.9 0-2.9.4-5.6 1-5.9.5-.3 7.9 5.5 16.4 12.9l15.4 13.6h80.8l1.8-9.3c.9-5 2.2-11.4 2.8-14.1l1-4.9 14.2 14.2 14.1 14.1h92l14.2-14.2 14.3-14.3V331h51.7l19.4-13.9 19.4-13.8.3 13.8.3 13.9H915l42.5-28.3 42.4-28.2.1-85.5v-85.5l-25.7-26.3-25.8-26.3-31.2.1H886V0H777.5L752 25.5 726.5 51h-57.8l-14.4 14.2L640 79.4V51h-52V0H394v51H159.5L134 25.5 108.5 0H0v114.3zm86-65.8V74h51v63H86v57h51v63H62.5l-19.7-19.7L23 217.5V23h63v25.5zM480 37v14h-63V23h63v14zm86 11.5V74h51v63h-51v57h51v63h-74.5l-19.7-19.7-19.8-19.8V23h63v25.5zm297 0V74h73.5l20.2 20.2 20.3 20.3V257h-63V137h-51v120h-63V23h63v25.5zM223 134v60h23V74l31.3.2 31.2.3.3 59.7.2 59.8h22l.2-59.8.3-59.7 31.3-.3L394 74v143.5l-19.7 19.7-19.8 19.8H160V74h63v60zm257 31.5V257h-63V74h63v91.5zm297-60V137h-74v57h74v63h-97.5l-19.7-19.7-19.8-19.8v-103l20.2-20.2L680.5 74H777v31.5z"/></svg>